<svg xmlns="http://www.w3.org/2000/svg" viewBox="0 0 100 100" preserveAspectRatio="xMidYMid" width="178" height="178" style="shape-rendering: auto; display: block; background: rgba(255, 255, 255, 0);" xmlns:xlink="http://www.w3.org/1999/xlink"><g><g transform="translate(50 50)">
<g>
<animateTransform repeatCount="indefinite" dur="5s" keyTimes="0;1" values="0 0 0;360 0 0" type="rotate" attributeName="transform"></animateTransform><path fill="#f0b14c" d="M26.6786431439082 -8.5 L37.678643143908204 -8.5 L37.678643143908204 8.5 L26.6786431439082 8.5 A28 28 0 0 1 23.279429528633436 15.558539803638054 L23.279429528633436 15.558539803638054 L30.137817349079505 24.158686110786384 L16.846682147122998 34.75801274238485 L9.98829432667693 26.157866435236524 A28 28 0 0 1 2.3503306644758255 27.90118179876302 L2.3503306644758255 27.90118179876302 L-0.09739960904363221 38.62538883276308 L-16.671174116134633 34.84253295550573 L-14.223443842615175 24.118325921505672 A28 28 0 0 1 -20.34861512804036 19.23366481903246 L-20.34861512804036 19.23366481903246 L-30.259272674966972 24.006385949325598 L-37.635296239965456 8.689915194984478 L-27.724638693038848 3.917194064691337 A28 28 0 0 1 -27.72463869303885 -3.91719406469133 L-27.72463869303885 -3.91719406469133 L-37.63529623996546 -8.689915194984469 L-30.259272674966976 -24.006385949325594 L-20.348615128040365 -19.233664819032455 A28 28 0 0 1 -14.223443842615172 -24.118325921505676 L-14.223443842615172 -24.118325921505676 L-16.671174116134633 -34.84253295550573 L-0.09739960904365441 -38.62538883276308 L2.3503306644758064 -27.90118179876302 A28 28 0 0 1 9.988294326676938 -26.15786643523652 L9.988294326676938 -26.15786643523652 L16.846682147123005 -34.75801274238485 L30.13781734907949 -24.158686110786398 L23.279429528633425 -15.55853980363807 A28 28 0 0 1 26.678643143908204 -8.499999999999995 M0 -19A19 19 0 1 0 0 19 A19 19 0 1 0 0 -19"></path></g></g><g></g></g><!-- [ldio] generated by https://loading.io --></svg>